<?xml version="1.0" encoding="utf-8"?>
<!-- Generator: Adobe Illustrator 23.0.3, SVG Export Plug-In . SVG Version: 6.00 Build 0)  -->
<svg version="1.1" id="Layer_1" focusable="false" xmlns="http://www.w3.org/2000/svg" xmlns:xlink="http://www.w3.org/1999/xlink"
	 x="0px" y="0px" viewBox="0 0 440.4 377.9" style="enable-background:new 0 0 440.4 377.9;" xml:space="preserve">
<style type="text/css">
	.st0{fill:#FFFFFF;}
</style>
<path class="st0" d="M290.3,0v243.9h-46.1c-21.4,0-32.1,25.9-17,41l86.1,86.1c9.4,9.4,24.6,9.4,33.9,0l86.1-86.1
	c15.1-15.1,4.4-41-17-41v0h-46.1V0L290.3,0z"/>
<path class="st0" d="M150.1,377.9V134.1h46.1c21.4,0,32.1-25.9,17-41L127.1,7c-9.4-9.4-24.6-9.4-33.9,0L7.1,93.1
	c-15.1,15.1-4.4,41,17,41l0,0h46.1v243.9H150.1z"/>
</svg>
