<?xml version="1.0" encoding="utf-8"?>
<!-- Generator: Adobe Illustrator 23.0.3, SVG Export Plug-In . SVG Version: 6.00 Build 0)  -->
<svg version="1.1" id="Capa_1" xmlns="http://www.w3.org/2000/svg" xmlns:xlink="http://www.w3.org/1999/xlink" x="0px" y="0px"
	 viewBox="0 0 54.9 54.9" style="enable-background:new 0 0 54.9 54.9;" xml:space="preserve">
<style type="text/css">
	.st0{fill:#30BB72;}
</style>
<g>
	<path class="st0" d="M8.7,4.3c7.6-6.5,19.1-5.5,25.5,2.1c5.1,6,5.6,14.3,1.8,20.8c-0.8,1.4-0.8,3.5,0.2,4.7l0.8,0.9
		c1.1,1.3,1.8,2.4,2.5,1.8c0.7-0.6,2.2-0.1,3.3,1.2l9,10.7c1.1,1.3,0.9,3.2-0.4,4.2l-4.1,3.4c-1.3,1.1-3.2,0.9-4.2-0.4l-9-10.7
		c-1.1-1.3-1.3-2.8-0.6-3.4s-0.3-1.5-1.4-2.8l-0.8-0.9c-1.1-1.3-3.1-1.6-4.6-1c-7,2.6-15.1,0.7-20.2-5.3C0.1,22.2,1.1,10.8,8.7,4.3z
		 M30.6,9.5c-4.8-5.6-13.2-6.3-18.8-1.6c-5.6,4.8-6.3,13.2-1.6,18.8c4.8,5.6,13.2,6.3,18.8,1.6C34.7,23.6,35.4,15.1,30.6,9.5z"/>
</g>
</svg>
